<svg width="27" height="32" viewBox="0 0 27 32" fill="none" xmlns="http://www.w3.org/2000/svg">
<g clip-path="url(#clip0_35226_848)">
<path d="M10.5468 4.87866C10.9957 4.52549 11.5629 5.2906 11.6227 5.99693C11.6825 6.70326 11.0549 8.29226 9.29176 8.70421C7.52863 9.11615 7.31934 10.2049 7.37916 10.8523C7.43897 11.4998 7.14014 12.206 6.51251 12.059C5.88488 11.9121 5.82519 10.9408 6.39301 10.028C6.96082 9.1152 8.39491 8.29179 8.63429 7.79143C8.87367 7.29107 8.6941 6.70266 9.17214 6.49669C9.65017 6.29072 10.2779 6.82034 10.2181 7.32106C10.2181 7.32106 10.6963 6.85033 10.6364 6.144C10.5973 5.68032 10.3215 5.05619 10.5468 4.87866Z" fill="#9EBBFF"/>
<path d="M22.1414 9.17555C22.3074 8.70363 23.4862 8.96958 23.7551 9.61689C24.024 10.2642 23.9344 10.7646 24.2033 11.2059C24.4721 11.6472 23.7252 12.3829 23.172 12.2947C22.6187 12.2064 22.8283 11.2059 22.8283 10.7644C22.8283 10.323 21.8726 9.94018 22.1414 9.17555Z" fill="#9EBBFF"/>
<path d="M18.4057 3.61833C18.8148 3.25836 19.6907 3.87819 19.9298 4.37843C20.1689 4.87866 19.9596 6.20291 19.2274 6.17352C18.4952 6.14413 18.7865 5.10877 18.5252 4.89312C18.0624 4.5108 18.0774 3.90758 18.4057 3.61833Z" fill="#9EBBFF"/>
<path d="M13.361 0.552873C13.6511 1.00186 13.4353 1.61225 12.6982 1.74964C11.9611 1.88704 11.8216 1.27832 11.4231 1.41607C11.0245 1.55382 10.5859 1.65144 10.4071 1.33758C10.2282 1.02372 10.427 0.552873 11.2238 0.552873C12.0207 0.552873 12.8285 -0.271139 13.361 0.552873Z" fill="#9EBBFF"/>
<path d="M8.7237 4.84253C9.07026 4.84253 9.3512 4.54448 9.3512 4.17682C9.3512 3.80916 9.07026 3.51111 8.7237 3.51111C8.37714 3.51111 8.09619 3.80916 8.09619 4.17682C8.09619 4.54448 8.37714 4.84253 8.7237 4.84253Z" fill="#9EBBFF"/>
<path d="M6.00199 7.04655C5.77912 6.93592 5.04824 8.08597 5.54629 8.22361C6.04434 8.36124 6.35809 7.22301 6.00199 7.04655Z" fill="#9EBBFF"/>
<path d="M4.05208 10.4601C4.05208 10.4601 5.02828 10.9898 4.66964 12.0786C4.311 13.1674 3.53413 13.0301 3.295 12.6965C3.05586 12.3629 3.05598 11.9118 3.45442 11.5974C3.85286 11.2829 4.05208 10.4601 4.05208 10.4601Z" fill="#9EBBFF"/>
<path d="M24.7715 16.3258C24.7715 16.3258 25.0703 16.7679 24.9209 17.5618C24.7716 18.3557 24.5327 19.9154 25.3691 20.3575C26.2055 20.7995 26.5346 19.2393 26.2063 18.7684C25.878 18.2976 26.3852 16.6785 24.7715 16.3258Z" fill="#9EBBFF"/>
<path d="M25.832 23.4178C26.1869 23.4178 26.4746 23.0752 26.4746 22.6527C26.4746 22.2301 26.1869 21.8876 25.832 21.8876C25.4771 21.8876 25.1895 22.2301 25.1895 22.6527C25.1895 23.0752 25.4771 23.4178 25.832 23.4178Z" fill="#9EBBFF"/>
<path d="M0.625424 23.7121C1.17941 23.4293 1.64142 23.8886 1.70124 24.742C1.76105 25.5954 2.56788 26.3311 2.14942 26.7725C1.73096 27.214 1.24468 25.3895 0.86444 25.2202C0.281096 24.9604 -0.181526 24.124 0.625424 23.7121Z" fill="#9EBBFF"/>
<path d="M24.1567 24.5654C23.635 25.0954 24.3293 25.6437 23.0977 27.0372C22.5849 27.6169 23.4763 29.3525 21.0058 29.3326C21.0058 29.3326 19.5712 30.6271 18.1366 30.8043C16.7021 30.9815 16.1047 30.7453 14.73 31.5106C13.3554 32.276 10.3071 30.9806 9.05188 30.4216C7.79662 29.8626 7.31895 29.8035 6.24338 29.8035C5.16782 29.8035 5.58603 28.1553 4.80881 27.449C4.03158 26.7427 3.13521 26.4489 3.07516 25.8017C3.0151 25.1545 2.41793 24.8599 2.47786 23.859C2.5378 22.8582 1.52144 22.5644 1.40229 21.3282C1.28315 20.092 1.93965 19.8572 1.70064 19.1508C1.46162 18.4445 1.40229 17.8563 1.76057 17.15C1.80317 17.0644 1.85267 16.9824 1.90859 16.9046C2.21567 16.4735 2.51038 16.507 2.71688 15.7964C2.95601 14.972 2.29866 14.6192 3.01595 14.2662C3.73324 13.9133 3.97237 14.972 3.55343 16.0317C3.13449 17.0914 2.59676 18.0917 3.31454 18.2681C4.03231 18.4446 3.85275 16.2672 4.80905 15.2664C5.76535 14.2655 5.34726 14.0309 6.60191 13.0301C7.85656 12.0292 7.97655 12.4418 8.39477 11.3819C8.81298 10.3221 9.99411 9.20462 11.1974 8.67463C12.4008 8.14465 12.9382 7.91 12.7584 7.02661C12.5786 6.14322 13.5819 6.14382 13.6188 5.202C13.6557 4.26019 12.818 3.613 12.1011 3.84848C11.3842 4.08397 10.6665 4.08385 10.9056 3.31922C11.1448 2.55458 12.6501 2.61289 13.3616 2.96569C14.073 3.3185 14.6712 2.43654 15.6276 3.31922C16.584 4.20189 17.8387 4.49639 17.6596 6.55696C17.4805 8.61752 17.3013 9.32254 18.0778 9.4407C18.8543 9.55886 18.1977 8.49889 18.1977 7.67523C18.1977 6.85158 19.5723 6.90976 19.9306 7.55707C20.2889 8.20438 19.8115 9.32254 20.1697 9.73508C20.528 10.1476 21.1861 10.0879 21.3652 10.6762C21.5443 11.2645 21.246 13.678 22.0825 14.2078C22.9189 14.7377 22.7398 12.9133 23.4571 13.4723C24.1744 14.0314 24.3535 15.0316 23.9353 16.0323C23.6562 16.7014 23.6276 18.3711 23.7897 19.8088C23.8684 20.52 23.994 21.1752 24.158 21.6233C24.6519 22.9763 24.6784 24.0354 24.1567 24.5654Z" fill="#9EBBFF"/>
<path d="M14.2493 9.56458C15.8186 9.07653 17.1358 11.7766 16.5897 12.9369C16.0436 14.0971 15.81 17.6759 17.8381 17.2309C19.8663 16.7858 18.3841 13.3439 19.4761 13.4132C20.568 13.4825 20.1002 16.6321 20.8023 17.6306C21.5044 18.6292 23.9268 25.4664 20.0242 27.8479C16.1216 30.2294 10.599 30.1526 8.48438 28.3855C7.63363 27.6747 7.0179 26.9311 6.56425 26.21C6.34865 25.8675 6.21907 25.5959 6.13075 25.3578C5.94063 24.846 5.97387 24.6656 5.78217 24.152C5.65666 23.8212 5.49512 23.5047 5.30038 23.2081C4.87877 22.5698 4.68756 22.6446 4.29336 22.0888C4.16172 21.9032 3.74387 21.2764 3.70529 20.432C3.69522 20.2109 3.66695 19.5931 3.93399 19.4829C4.2361 19.3585 4.62713 20.0029 5.02837 19.8691C5.23875 19.7988 5.33023 19.5555 5.38774 19.4031C5.5576 18.9518 5.38774 18.6727 5.30608 18.0037C5.24324 17.4864 5.16777 16.8644 5.47594 16.3396C5.52642 16.2536 5.67189 15.9726 6.15453 15.7104C7.85227 14.7886 9.37687 15.6336 10.4869 13.9435C11.5969 12.2535 11.6184 12.1425 12.6608 11.6986C13.7033 11.2548 12.767 10.0255 14.2493 9.56458Z" fill="#C6D7FF"/>
<path d="M13.6264 32C12.5185 32 10.971 31.5525 8.94725 30.6511C7.71396 30.1015 7.27645 30.0555 6.24359 30.0555C5.42681 30.0555 5.25258 29.3218 5.11269 28.7324C5.01381 28.3159 4.91153 27.8852 4.63527 27.6343C4.37818 27.4006 4.10944 27.2161 3.84955 27.0369C3.3242 26.6754 2.87056 26.3632 2.82069 25.824C2.80104 25.6103 2.70228 25.4338 2.58787 25.2294C2.40745 24.9068 2.18287 24.5059 2.22243 23.8442C2.24669 23.4333 2.04941 23.1666 1.79924 22.8287C1.52479 22.4583 1.21371 22.0379 1.14734 21.3522C1.0794 20.6494 1.24186 20.2411 1.37241 19.9127C1.47917 19.6445 1.5436 19.4826 1.45818 19.2302C1.2421 18.592 1.10148 17.8845 1.53183 17.0368C1.71309 16.68 1.90419 16.5125 2.05779 16.3778C2.23238 16.2249 2.35844 16.115 2.4703 15.7267C2.55329 15.4405 2.5067 15.2286 2.46096 15.0237C2.39265 14.7157 2.30772 14.3323 2.90077 14.0403C3.19887 13.8935 3.49054 13.9177 3.70153 14.1065C4.08092 14.447 4.11902 15.2949 3.79216 16.1227C3.73478 16.2679 3.6752 16.412 3.61685 16.5528C3.38996 17.1024 3.13275 17.7237 3.24461 17.9411C3.25335 17.9581 3.27385 17.9978 3.37662 18.0231C3.38273 18.025 3.38914 18.0258 3.39554 18.0256C3.51105 17.9856 3.65033 17.436 3.73381 17.1076C3.90063 16.4504 4.10822 15.6313 4.62241 15.0933C5.01272 14.6849 5.15831 14.4153 5.29893 14.1546C5.49924 13.7843 5.68827 13.4335 6.44075 12.8337C6.91987 12.4514 7.23872 12.2691 7.47203 12.1356C7.82922 11.931 7.92531 11.876 8.15668 11.2902C8.59346 10.1833 9.80104 9.01308 11.0928 8.44426L11.0984 8.44187C12.3509 7.89014 12.6414 7.73482 12.5076 7.07581C12.3875 6.48441 12.7017 6.17736 12.9546 5.93077C13.1663 5.72408 13.3491 5.54558 13.3628 5.1923C13.3778 4.80604 13.2124 4.44666 12.9204 4.23089C12.6905 4.06112 12.4213 4.00879 12.182 4.08753C11.7227 4.23842 11.1072 4.35276 10.7835 4.04141C10.6534 3.91608 10.5263 3.67606 10.6611 3.24476C10.7476 2.96794 10.9608 2.75133 11.2776 2.61835C11.9311 2.34357 12.9276 2.46842 13.4768 2.74058C13.6737 2.83831 13.8598 2.8039 14.1471 2.73974C14.5874 2.64141 15.1352 2.51907 15.8024 3.13496C16.005 3.32194 16.2286 3.48633 16.4448 3.64523C17.2418 4.23066 18.066 4.83663 17.9145 6.57736C17.892 6.83495 17.8696 7.07151 17.8491 7.28847C17.6945 8.91786 17.7246 9.13124 18.1168 9.19061C18.1444 9.19528 18.1724 9.1972 18.2003 9.19635C18.217 9.09014 18.1457 8.80507 18.0973 8.61093C18.0245 8.31881 17.9415 7.98775 17.9415 7.67353C17.9415 7.26493 18.1963 6.95669 18.6223 6.85C19.1327 6.72181 19.8639 6.90974 20.1553 7.43542C20.3724 7.82754 20.3364 8.32526 20.3045 8.76445C20.2813 9.08321 20.2551 9.44462 20.3641 9.5697C20.4753 9.69766 20.6418 9.77281 20.8181 9.8525C21.1093 9.98392 21.4715 10.1481 21.6102 10.6029C21.6751 10.8163 21.6851 11.1724 21.6976 11.6233C21.7206 12.4503 21.7554 13.7002 22.2206 13.9947C22.3055 14.0485 22.3541 14.0555 22.3696 14.0511C22.438 14.0313 22.5352 13.8227 22.5933 13.698C22.7047 13.4591 22.8311 13.1876 23.1013 13.1238C23.2654 13.085 23.4386 13.1358 23.6158 13.2734C24.4165 13.898 24.6349 15.0177 24.1717 16.127C23.7874 17.046 23.9207 20.2313 24.3981 21.5369C24.9467 23.0372 24.9269 24.1449 24.3412 24.7403C24.2054 24.8783 24.1906 25.0031 24.1702 25.2714C24.1375 25.7039 24.0925 26.2961 23.2913 27.2023C23.1912 27.3156 23.1673 27.5594 23.142 27.8174C23.0734 28.515 22.9704 29.5631 21.1037 29.584C20.7797 29.86 19.4932 30.8907 18.1695 31.0535C17.7624 31.1036 17.4192 31.1214 17.1162 31.1371C16.3509 31.1768 15.7979 31.2055 14.8569 31.7292C14.5331 31.9097 14.1242 32 13.6264 32ZM3.2764 14.449C3.24243 14.449 3.1956 14.4594 3.13081 14.4913C2.89373 14.608 2.90029 14.6372 2.96216 14.9165C3.01263 15.1447 3.08191 15.4573 2.9635 15.8654C2.81026 16.3938 2.60097 16.5772 2.3986 16.7546C2.25907 16.8768 2.12731 16.9923 1.99009 17.2625C1.66129 17.9101 1.72875 18.4347 1.94422 19.0711C2.08824 19.4967 1.96691 19.8017 1.84947 20.0967C1.73299 20.3896 1.60099 20.7215 1.6574 21.3045C1.7103 21.8528 1.96606 22.1981 2.21333 22.532C2.48656 22.9011 2.76913 23.2827 2.73382 23.8741C2.70301 24.3903 2.8651 24.6799 3.03714 24.9864C3.16733 25.2191 3.302 25.4597 3.33148 25.7786C3.35963 26.0846 3.70566 26.3226 4.14377 26.624C4.40487 26.8032 4.70079 27.0073 4.98336 27.2641C5.37476 27.6199 5.50058 28.15 5.61171 28.6177C5.76944 29.2812 5.87051 29.5515 6.24419 29.5515C7.31625 29.5515 7.84572 29.6067 9.15885 30.1919C12.5657 31.7092 14.001 31.6273 14.6054 31.291C15.6511 30.7089 16.2859 30.6761 17.0895 30.6345C17.3839 30.6192 17.7174 30.602 18.1063 30.5541C19.4442 30.3893 20.8201 29.1594 20.8338 29.1471C20.8811 29.1044 20.9428 29.0808 21.0069 29.0807H21.0089C22.5027 29.0927 22.5631 28.4794 22.6329 27.7695C22.6663 27.4289 22.6979 27.107 22.9056 26.872C23.5951 26.0921 23.6312 25.6166 23.6602 25.2345C23.6815 24.9546 23.7035 24.6651 23.9739 24.3902C24.4018 23.9552 24.3811 22.9778 23.9169 21.7083C23.3891 20.2646 23.2648 16.9737 23.6985 15.9358C24.0729 15.0397 23.9158 14.1506 23.2981 13.6691C23.2743 13.6493 23.2478 13.6327 23.2195 13.6197C23.1722 13.6651 23.1019 13.8158 23.0586 13.9088C22.9402 14.163 22.806 14.451 22.5135 14.5354C22.3375 14.5861 22.1459 14.5473 21.944 14.4192C21.2513 13.9807 21.2152 12.6816 21.1861 11.6378C21.1755 11.2572 21.1656 10.8971 21.1201 10.7483C21.0513 10.5226 20.8877 10.4392 20.6047 10.3112C20.3962 10.2169 20.1599 10.1101 19.9754 9.89826C19.7296 9.61582 19.7609 9.18512 19.7941 8.72909C19.8222 8.34103 19.8513 7.9396 19.7061 7.67772C19.5451 7.38704 19.0678 7.25956 18.7488 7.33961C18.4534 7.4138 18.4534 7.61021 18.4534 7.67473C18.4534 7.92778 18.5283 8.2273 18.5944 8.49157C18.7045 8.93195 18.7997 9.31224 18.5802 9.54844C18.4597 9.67819 18.2776 9.7255 18.0391 9.68942C17.1207 9.55035 17.1938 8.77903 17.3395 7.24223C17.36 7.02718 17.3823 6.79122 17.4046 6.53495C17.5318 5.07354 16.9171 4.62181 16.1388 4.04989C15.9112 3.88263 15.676 3.70975 15.4525 3.50342C14.9835 3.07044 14.6638 3.14165 14.2604 3.23197C13.9592 3.29924 13.6174 3.37534 13.2466 3.19147C12.8073 2.97355 11.9727 2.8751 11.4784 3.08275C11.3021 3.1567 11.1918 3.26136 11.1508 3.39338C11.1069 3.53412 11.1034 3.64428 11.1417 3.68131C11.2094 3.74643 11.4991 3.78108 12.0206 3.60963C12.4216 3.47821 12.8618 3.55766 13.2281 3.82827C13.6544 4.1432 13.8961 4.66052 13.8747 5.21201C13.8534 5.76351 13.555 6.05514 13.3154 6.28907C13.0645 6.53411 12.9467 6.66565 13.01 6.97748C13.2284 8.05621 12.5059 8.37532 11.3078 8.90232L11.3022 8.90483C10.1426 9.41558 9.02066 10.4959 8.63447 11.4735C8.34959 12.1949 8.16275 12.3242 7.73022 12.5718C7.51183 12.6971 7.21251 12.8685 6.76396 13.226C6.09254 13.7612 5.93481 14.0534 5.75209 14.3918C5.60286 14.6683 5.43361 14.9818 4.99634 15.4393C4.57364 15.8814 4.38388 16.6293 4.23198 17.2303C4.14268 17.5822 4.06564 17.8862 3.95402 18.1124C3.73478 18.5567 3.42139 18.5545 3.2542 18.5127C2.98194 18.4457 2.85139 18.2891 2.78988 18.1697C2.57234 17.7476 2.83756 17.1064 3.14452 16.3635C3.20191 16.2248 3.26051 16.0831 3.3168 15.9404C3.59816 15.2281 3.52003 14.6244 3.35842 14.4795C3.34763 14.4691 3.33477 14.461 3.32065 14.4558C3.30653 14.4505 3.29147 14.4482 3.2764 14.449Z" fill="#407BFF"/>
<path d="M6.67574 12.2677C6.60572 12.2674 6.53597 12.259 6.46791 12.2428C6.21178 12.1831 6.01135 12.0089 5.90349 11.753C5.70184 11.2751 5.82669 10.5762 6.22913 9.92944C6.55672 9.40375 7.13315 8.92586 7.64212 8.50376C8.01653 8.19312 8.37008 7.90029 8.46035 7.71129C8.53836 7.54809 8.56651 7.36421 8.59381 7.18644C8.64355 6.86195 8.69985 6.49409 9.09514 6.32384C9.36558 6.20723 9.69365 6.25908 9.9727 6.46266C10.1135 6.56484 10.2287 6.69747 10.3093 6.85036C10.3956 6.67354 10.4686 6.43602 10.4451 6.15956C10.433 6.01786 10.395 5.8512 10.3583 5.69015C10.2681 5.29588 10.1831 4.92301 10.4268 4.73089C10.6048 4.59075 10.8184 4.56243 11.028 4.65132C11.4197 4.81727 11.7648 5.40138 11.8138 5.98095C11.8791 6.75215 11.2004 8.45226 9.33597 8.88786C7.67888 9.27508 7.51836 10.2738 7.57017 10.8353C7.61749 11.3474 7.46158 11.8372 7.17318 12.0833C7.03606 12.203 6.85894 12.2686 6.67574 12.2677ZM9.39797 6.64044C9.34673 6.64002 9.29595 6.65007 9.24886 6.66995C9.05668 6.75275 9.02222 6.92336 8.97332 7.24271C8.94348 7.43781 8.90963 7.65884 8.80771 7.8721C8.68165 8.13614 8.33198 8.42622 7.88938 8.79324C7.40261 9.19682 6.85094 9.65417 6.55648 10.1273C6.22731 10.6561 6.10756 11.2513 6.25801 11.6088C6.31867 11.7536 6.41962 11.8434 6.55684 11.8755C6.70146 11.9095 6.82085 11.8842 6.92167 11.7981C7.11677 11.6317 7.22378 11.2587 7.18786 10.8699C7.13703 10.3204 7.2364 8.99073 9.24716 8.52084C10.8874 8.13757 11.4871 6.67473 11.4311 6.01308C11.3908 5.5371 11.1061 5.09672 10.876 4.99923C10.7965 4.96554 10.7339 4.97366 10.6668 5.02647C10.614 5.08883 10.6911 5.42635 10.7326 5.60783C10.7722 5.78154 10.8133 5.96111 10.8275 6.12885C10.8938 6.91344 10.3756 7.43351 10.3535 7.45501C10.3254 7.48275 10.2891 7.50116 10.2499 7.5077C10.2106 7.51424 10.1702 7.50858 10.1343 7.49151C10.0985 7.47445 10.0689 7.44681 10.0497 7.41244C10.0305 7.37807 10.0226 7.33867 10.0272 7.2997C10.0485 7.12049 9.93472 6.90651 9.74388 6.7672C9.63068 6.68393 9.50911 6.6408 9.39797 6.6408V6.64044Z" fill="#407BFF"/>
<path d="M23.2695 12.4909C23.2267 12.4909 23.184 12.4876 23.1417 12.481C22.5229 12.3822 22.5818 11.5869 22.6207 11.0608C22.629 10.9489 22.6367 10.8432 22.6367 10.7641C22.6367 10.6627 22.5041 10.5145 22.3758 10.3712C22.1159 10.0807 21.7598 9.68288 21.96 9.11323C22.039 8.88886 22.2621 8.75481 22.5723 8.74693C23.0621 8.73498 23.7209 9.03498 23.9328 9.54501C24.0686 9.87189 24.1181 10.1617 24.1618 10.4172C24.2067 10.68 24.2454 10.907 24.3681 11.108C24.5052 11.3329 24.4734 11.6217 24.2811 11.9018C24.0693 12.2102 23.6681 12.4909 23.2695 12.4909ZM22.6047 9.12446H22.5829C22.5159 9.12637 22.3565 9.14095 22.3227 9.23665C22.2046 9.57285 22.3811 9.80511 22.6638 10.1208C22.8474 10.3258 23.0206 10.5194 23.0206 10.7636C23.0206 10.8565 23.0124 10.9688 23.0035 11.0878C22.9748 11.4765 22.9307 12.0639 23.2031 12.1074C23.4376 12.1444 23.7788 11.9574 23.9632 11.6892C24.0128 11.6175 24.1197 11.4347 24.0388 11.302C23.8789 11.0392 23.8325 10.7675 23.7833 10.4793C23.7409 10.2315 23.6971 9.97524 23.577 9.68719C23.4375 9.35111 22.9586 9.12446 22.6047 9.12446Z" fill="#407BFF"/>
<path d="M19.2526 6.363C19.2418 6.363 19.231 6.363 19.2201 6.36228C18.5891 6.33695 18.5188 5.74102 18.4764 5.38582C18.4626 5.26957 18.44 5.07519 18.4017 5.03743C18.1364 4.81844 17.9809 4.5096 17.9757 4.1906C17.9712 3.91044 18.0815 3.65046 18.2782 3.47734C18.4359 3.33887 18.6486 3.2918 18.8937 3.3409C19.3911 3.44067 19.9214 3.91629 20.1038 4.29789C20.2898 4.68726 20.2538 5.4851 19.9269 5.97052C19.7533 6.22763 19.5207 6.363 19.2526 6.363ZM18.7127 3.70004C18.6387 3.70004 18.5792 3.71976 18.5339 3.75978C18.4204 3.85966 18.3568 4.01474 18.3596 4.18511C18.363 4.39741 18.4658 4.59753 18.6488 4.74878C18.8021 4.87519 18.8291 5.10207 18.8576 5.34233C18.9087 5.77088 18.9626 5.97411 19.2357 5.9851C19.3807 5.99107 19.5018 5.91772 19.607 5.76156C19.8496 5.40075 19.8925 4.74389 19.7564 4.4593C19.6169 4.16742 19.1862 3.78559 18.8171 3.71175C18.7828 3.70441 18.7478 3.70049 18.7127 3.70004Z" fill="#407BFF"/>
<path d="M12.4876 1.95937C12.1471 1.95937 11.932 1.81206 11.7668 1.69904C11.6107 1.59235 11.5614 1.56881 11.4869 1.59462C11.1991 1.69378 10.5235 1.92651 10.2406 1.43034C10.1838 1.33282 10.1542 1.22223 10.1548 1.1098C10.1554 0.997375 10.1862 0.88711 10.2441 0.790198C10.3376 0.630939 10.5912 0.363915 11.2242 0.363915C11.4668 0.363915 11.7266 0.271204 11.9782 0.181598C12.4747 0.00477688 13.0925 -0.215055 13.5233 0.45149C13.6976 0.721023 13.7264 1.03691 13.6028 1.31839C13.4643 1.63344 13.1477 1.85829 12.7342 1.93536C12.653 1.95095 12.5704 1.95899 12.4876 1.95937ZM11.5381 1.20668C11.7201 1.20668 11.8642 1.30537 11.9858 1.38852C12.1639 1.51039 12.332 1.62556 12.6629 1.56391C12.9535 1.50979 13.1622 1.36929 13.2505 1.16821C13.3233 1.00382 13.3042 0.816482 13.1994 0.654476C12.9462 0.261526 12.6509 0.344083 12.109 0.53763C11.8263 0.638347 11.5338 0.742409 11.2244 0.742409C10.9021 0.742409 10.6655 0.829505 10.5752 0.981356C10.5512 1.02134 10.5386 1.06693 10.5386 1.11338C10.5386 1.15982 10.5512 1.20541 10.5752 1.24539C10.6621 1.39748 10.9042 1.39533 11.3606 1.23811C11.4175 1.21782 11.4775 1.2072 11.5381 1.20668Z" fill="#407BFF"/>
<path d="M8.72386 5.03158C8.27192 5.03158 7.9043 4.64818 7.9043 4.17686C7.9043 3.70554 8.27192 3.32214 8.72386 3.32214C9.17581 3.32214 9.54331 3.70554 9.54331 4.17686C9.54331 4.64818 9.17569 5.03158 8.72386 5.03158ZM8.72386 3.70016C8.48364 3.70016 8.28818 3.91402 8.28818 4.17686C8.28818 4.4397 8.48364 4.65356 8.72386 4.65356C8.96409 4.65356 9.15943 4.4397 9.15943 4.17686C9.15943 3.91402 8.96409 3.70016 8.72386 3.70016Z" fill="#407BFF"/>
<path d="M5.63181 8.42474C5.58528 8.42459 5.53898 8.41816 5.49423 8.40562C5.33419 8.36154 5.22451 8.24278 5.19333 8.07994C5.1226 7.71029 5.47239 7.13311 5.73445 6.9392C5.89218 6.822 6.01351 6.84099 6.088 6.87779C6.3946 7.02988 6.402 7.49822 6.25083 7.88245C6.11506 8.22797 5.88539 8.42474 5.63181 8.42474ZM5.94265 7.25652C5.80179 7.37528 5.5561 7.76226 5.56787 7.98663C5.57042 8.03442 5.58 8.03681 5.59772 8.04171C5.70861 8.07253 5.82824 7.90969 5.89291 7.74589C5.97881 7.52749 5.97201 7.33836 5.94265 7.25652Z" fill="#407BFF"/>
<path d="M3.7962 13.1257C3.53522 13.1257 3.28128 13.0053 3.13824 12.8056C2.81441 12.3539 2.89558 11.7965 3.33454 11.4504C3.61809 11.227 3.81391 10.6281 3.86535 10.4163C3.87226 10.388 3.88568 10.3617 3.90458 10.3394C3.92349 10.317 3.94736 10.2993 3.97436 10.2875C4.00135 10.2758 4.03073 10.2703 4.06022 10.2715C4.08972 10.2728 4.11852 10.2807 4.14441 10.2946C4.53011 10.5038 5.17436 11.1583 4.85199 12.1369C4.59878 12.9059 4.15897 13.0808 3.91934 13.1166C3.87859 13.1227 3.83742 13.1258 3.7962 13.1257ZM4.1586 10.7721C4.05972 11.0625 3.86742 11.5139 3.57429 11.7453C3.23178 12.0152 3.29426 12.3675 3.45187 12.5873C3.51933 12.6815 3.67669 12.7703 3.86208 12.7427C4.12463 12.7035 4.34654 12.447 4.48704 12.0202C4.69584 11.3871 4.385 10.9748 4.1586 10.7723V10.7721Z" fill="#407BFF"/>
<path d="M25.652 20.6239C25.5307 20.6239 25.4048 20.5909 25.2782 20.5241C24.3731 20.0462 24.533 18.5852 24.7322 17.5275C24.8638 16.8279 24.6144 16.4345 24.6119 16.4308C24.5906 16.3994 24.5794 16.3625 24.5796 16.3248C24.5799 16.2871 24.5916 16.2503 24.6132 16.2192C24.6348 16.188 24.6655 16.164 24.7011 16.1502C24.7367 16.1363 24.7757 16.1333 24.8131 16.1415C26.0833 16.4193 26.1824 17.4245 26.248 18.0897C26.2722 18.3324 26.2945 18.5616 26.3642 18.6613C26.6469 19.0663 26.5428 19.967 26.1651 20.3824C26.0194 20.5423 25.8421 20.6239 25.652 20.6239ZM25.0955 16.6308C25.153 16.8627 25.1861 17.1884 25.1093 17.5964C24.8357 19.0511 24.9535 19.9241 25.4594 20.1909C25.6293 20.2809 25.759 20.2626 25.8788 20.1304C26.1527 19.829 26.2141 19.1149 26.0474 18.876C25.9217 18.6958 25.8956 18.432 25.8654 18.1266C25.81 17.5627 25.748 16.9342 25.0955 16.6308Z" fill="#407BFF"/>
<path d="M25.8324 23.6068C25.3723 23.6068 24.998 23.1789 24.998 22.6527C24.998 22.1266 25.3723 21.6986 25.8324 21.6986C26.2925 21.6986 26.6669 22.1267 26.6669 22.6527C26.6669 23.1788 26.2922 23.6068 25.8324 23.6068ZM25.8324 22.0766C25.5839 22.0766 25.3819 22.335 25.3819 22.6527C25.3819 22.9704 25.5839 23.2288 25.8324 23.2288C26.0809 23.2288 26.283 22.9704 26.283 22.6527C26.283 22.335 26.0809 22.0766 25.8324 22.0766Z" fill="#407BFF"/>
<path d="M2.01326 27.0303C1.99629 27.0303 1.97934 27.0291 1.96254 27.0267C1.65922 26.9831 1.4435 26.556 1.19381 26.0616C1.07637 25.8289 0.879815 25.4396 0.784936 25.3925C0.341848 25.1951 0.0124434 24.7531 0.00031065 24.3418C-0.00878892 24.0088 0.182302 23.7255 0.536457 23.5444C0.800709 23.4094 1.07357 23.4055 1.30446 23.5332C1.63763 23.7175 1.85189 24.1534 1.89217 24.7291C1.9151 25.0568 2.06203 25.37 2.20423 25.673C2.40769 26.1065 2.61808 26.5548 2.28916 26.9016C2.19306 27.0034 2.09248 27.0303 2.01326 27.0303ZM0.943512 23.8179C0.871443 23.8179 0.794804 23.8385 0.713596 23.8799C0.49011 23.9941 0.379338 24.146 0.384313 24.3315C0.391592 24.597 0.637159 24.9117 0.94339 25.0483C1.14892 25.1399 1.30301 25.4292 1.5379 25.8936C1.66044 26.1362 1.88416 26.5794 2.00634 26.6471L2.00937 26.6439C2.15497 26.4908 2.04577 26.2354 1.8565 25.8315C1.70703 25.5131 1.53777 25.1523 1.50999 24.7553C1.47917 24.3155 1.33237 23.9819 1.11725 23.8629C1.06433 23.8332 1.00443 23.8177 0.943512 23.8179Z" fill="#407BFF"/>
<path d="M15.1809 21.667C15.3342 22.4185 14.8444 23.2094 14.1355 23.5069C13.1432 23.9517 11.8983 23.4282 11.5985 22.3859C11.5295 22.1479 11.5149 21.8985 11.5621 21.6668C11.5673 21.6419 11.5809 21.6196 11.6008 21.6035C11.6206 21.5873 11.6455 21.5784 11.6712 21.5781C11.6969 21.5778 11.722 21.5862 11.7422 21.6019C11.7624 21.6176 11.7765 21.6397 11.7822 21.6644C11.9448 22.429 12.5903 23.0009 13.3608 22.993C14.126 22.9872 14.7533 22.4229 14.9182 21.6669C14.9456 21.5273 15.1536 21.5284 15.1804 21.6669L15.1809 21.667Z" fill="#407BFF"/>
<g opacity="0.5">
<path d="M6.5925 22.8171C7.28421 22.6868 7.70772 21.8748 7.53844 21.0034C7.36916 20.1321 6.6712 19.5313 5.97949 19.6616C5.28779 19.792 4.86428 20.604 5.03356 21.4753C5.20283 22.3466 5.9008 22.9474 6.5925 22.8171Z" fill="white"/>
</g>
<g opacity="0.5">
<path d="M6.63037 18.799C7.34536 19.0181 8.06374 16.7125 9.33076 16.1908C10.5978 15.669 11.433 14.0277 11.8216 12.9661C12.2102 11.9044 13.8052 11.2112 13.4683 10.4691C13.1314 9.72689 11.6721 10.324 10.8124 11.4544C9.95269 12.5847 10.3362 13.764 9.03933 14.2631C7.74246 14.7621 5.15042 18.3454 6.63037 18.799Z" fill="white"/>
</g>
<g opacity="0.2">
<path d="M23.5046 24.4851C23.0145 24.9636 23.667 25.4587 22.5098 26.7167C22.0277 27.2401 22.8655 28.8075 20.5442 28.7891C20.5442 28.7891 19.1961 29.9579 17.8477 30.1178C16.4994 30.2776 15.9379 30.0645 14.646 30.7555C13.3541 31.4466 10.4891 30.2776 9.30919 29.7724C8.12928 29.2671 7.68061 29.2143 6.6697 29.2143C5.6588 29.2143 6.0519 27.7263 5.32139 27.0886C4.59088 26.451 3.74838 26.1857 3.69208 25.6013C3.63579 25.017 3.07428 24.751 3.13058 23.8474C3.18687 22.9439 2.23166 22.6786 2.11968 21.5625C2.00769 20.4464 2.62476 20.2344 2.40006 19.5967C2.17537 18.9589 2.11968 18.4279 2.45648 17.7902C2.49667 17.7127 2.54321 17.6386 2.59564 17.5686C2.60984 17.9301 2.63022 18.2918 2.7558 18.5159C2.8855 18.7477 3.0573 18.9615 3.13664 19.2127C3.34035 19.8578 2.88477 20.5138 2.81828 21.184C2.69477 22.424 3.85842 23.3835 4.65409 24.3757C5.36216 25.2587 5.86991 26.3447 6.8699 26.9227C7.98271 27.5662 9.42603 27.4006 10.6446 26.9625C11.8633 26.5244 12.976 25.8394 14.2176 25.4624C15.6543 25.0244 17.1952 25.0172 18.7025 25.092C19.788 25.1459 21.0276 25.1876 21.7826 24.4485C22.2171 24.0234 22.3909 23.4216 22.5098 22.8411C22.7378 21.7268 22.8234 20.5887 22.7645 19.4534C22.8961 19.6988 23.0276 19.9444 23.159 20.1901C23.2329 20.8323 23.351 21.4238 23.5051 21.8283C23.9697 23.0504 23.9942 24.0067 23.5046 24.4851Z" fill="#407BFF"/>
</g>
<path d="M16.9417 16.6199C17.7622 16.5376 18.5199 17.4222 18.634 18.5957C18.748 19.7691 18.1751 20.7873 17.3547 20.8697C16.5343 20.9522 15.7765 20.0675 15.6624 18.894C15.5484 17.7205 16.1212 16.7025 16.9417 16.6199Z" fill="#407BFF"/>
<path d="M16.9994 17.1116C17.2608 17.2191 17.3734 17.6185 17.2509 18.0037C17.1284 18.3889 16.8169 18.6141 16.5555 18.5065C16.294 18.399 16.1814 17.9996 16.3039 17.6144C16.4265 17.2292 16.7379 17.004 16.9994 17.1116Z" fill="white"/>
<path d="M17.8795 19.6343C18.0032 19.7246 18.0183 19.9449 17.9131 20.1262C17.8079 20.3074 17.6219 20.3816 17.4985 20.2914C17.3751 20.2012 17.3597 19.9808 17.4649 19.7995C17.5701 19.6183 17.7557 19.5442 17.8795 19.6343Z" fill="#8BAEFF"/>
<path d="M9.90499 16.6199C9.08445 16.5376 8.32676 17.4222 8.21271 18.5957C8.09866 19.7691 8.67145 20.7873 9.49199 20.8697C10.3125 20.9522 11.0702 20.0675 11.1843 18.894C11.2983 17.7205 10.7256 16.7025 9.90499 16.6199Z" fill="#407BFF"/>
<path d="M9.84744 17.1116C9.58598 17.2191 9.47339 17.6185 9.59593 18.0037C9.71847 18.3889 10.0299 18.6141 10.2914 18.5065C10.5528 18.399 10.6654 17.9996 10.5429 17.6144C10.4204 17.2292 10.1089 17.004 9.84744 17.1116Z" fill="white"/>
<path d="M8.9674 19.6343C8.84364 19.7246 8.8286 19.9449 8.93379 20.1262C9.03898 20.3074 9.22497 20.3816 9.34836 20.2914C9.47175 20.2012 9.48716 19.9808 9.38197 19.7995C9.27678 19.6183 9.09115 19.5442 8.9674 19.6343Z" fill="#8BAEFF"/>
</g>
<defs>
<clipPath id="clip0_35226_848">
<rect width="26.6667" height="32" fill="white"/>
</clipPath>
</defs>
</svg>
